<svg xmlns="http://www.w3.org/2000/svg" viewBox="0 0 400.41 206.93"><defs><style>.cls-1,.cls-7{fill:#000306;}.cls-2{fill:#74ac43;}.cls-3{fill:#b8a889;}.cls-4{fill:#c5b99f;}.cls-5{fill:#f6e941;}.cls-6{fill:#261e1c;}.cls-7{stroke:#000306;stroke-width:0.43px;}.cls-8{fill:#4375b9;}</style></defs><g id="Camada_2" data-name="Camada 2"><g id="Layer_1" data-name="Layer 1"><path class="cls-1" d="M199,117.87V6.93a1.62,1.62,0,0,1,1.69-1.69h36.84c20.46,0,30.06,14,30.06,34.72S258,74.54,237.54,74.54H226.11a1.63,1.63,0,0,0-1.7,1.69v41.64a1.62,1.62,0,0,1-1.69,1.69h-22A1.62,1.62,0,0,1,199,117.87Zm27.1-62.67h5.36c7.9,0,11-6.21,11-15.24s-3.11-15.53-11.15-15.53h-5.22a1.64,1.64,0,0,0-1.7,1.7V53.51A1.63,1.63,0,0,0,226.11,55.2Z"/><path class="cls-1" d="M316.15,33.47c0-6.07-3-9.18-7.62-9.18-7.48,0-9.32,6.64-9.32,15.1v4A1.63,1.63,0,0,1,297.52,45H278a1.63,1.63,0,0,1-1.69-1.69V39c0-20.18,9-35.28,32-35.28,20.46,0,31.05,11.29,31.05,30.2,0,13.83-7.34,24-15.67,36l-18.49,27c-1,1.55-.28,3.39,1.55,3.39h27.81a1.62,1.62,0,0,1,1.69,1.69v16a1.62,1.62,0,0,1-1.69,1.69H278.32a1.63,1.63,0,0,1-1.69-1.69V104.46a4.69,4.69,0,0,1,1-2.82L304,60.85C310.08,51.53,316.15,43.35,316.15,33.47Z"/><path class="cls-1" d="M347.9,5.24h50.82a1.63,1.63,0,0,1,1.69,1.69v14a3.11,3.11,0,0,1-.14,1.13l-24.42,96.26a1.65,1.65,0,0,1-1.55,1.27H354.68a1.66,1.66,0,0,1-1.55-2.11l23.28-90.34A1.66,1.66,0,0,0,374.86,25h-27a1.64,1.64,0,0,1-1.69-1.7V6.93A1.63,1.63,0,0,1,347.9,5.24Z"/><path class="cls-2" d="M172.28,125.06s3.83,7.36,5.55,10.14,3.7,3.56,5.16,5.15,10,14.93,13.48,16.52,17.18,3.83,20.88,5.29,8.85,7.66,12.42,9.64,23,6.1,23,6.1l2.93-2-33.3-16-30-13.48L177.3,125.55Z"/><path class="cls-1" d="M351.48,193a9.73,9.73,0,0,0,2.83,1,11.84,11.84,0,0,0,3.79-.29,20.77,20.77,0,0,1,8-.19,12.88,12.88,0,0,1,6.49,3.57,3.21,3.21,0,0,1,1.12,2.15,2.41,2.41,0,0,1-1.42,2,6.29,6.29,0,0,1-2.51.5,60.23,60.23,0,0,1-11.12-1A50.43,50.43,0,0,1,350,199c-2.54-.85-10.13-3.15-9.27-6.9C341.75,187.6,349.32,191.89,351.48,193Z"/><path class="cls-1" d="M340,191.4a6.05,6.05,0,0,1,3.81-.51,14.72,14.72,0,0,1,5.08,1.61,18.29,18.29,0,0,0,4.37,2.15c2.31.53,4.67-.41,7-.77a14.49,14.49,0,0,1,11.2,3c1.18,1,2.29,2.48,1.73,3.9a3.83,3.83,0,0,1-2.44,1.87,20.47,20.47,0,0,1-5.36,1.17c-3.59.27-7.2-.41-10.8-.3-2.71.09-5.4.63-8.12.72a12.26,12.26,0,0,1-7.75-2C334.53,199.17,335.74,193.84,340,191.4Z"/><path class="cls-2" d="M320.66,196.16a9.11,9.11,0,0,1-3.57,8.67,16.94,16.94,0,0,0,5.93,2,19.69,19.69,0,0,0,5.4-.43l15.76-2.7c2.54-.44,5.57-1.29,6.25-3.78s-1.71-4.92-4.22-5.55-5.16-.12-7.75-.23c-5.52-.24-10.4-3.17-15.66-4.51-1.18-.3-6.28-1.73-5.93.52.09.55,2,1.86,2.36,2.44A8.93,8.93,0,0,1,320.66,196.16Z"/><path class="cls-1" d="M358.12,194l2.12-.09S358.91,191.69,358.12,194Z"/><path class="cls-1" d="M363.29,193.33c-.1.23,2,.24,2,.24S364.22,191.33,363.29,193.33Z"/><path class="cls-1" d="M368.19,194.46l1.75.88S370.44,192.76,368.19,194.46Z"/><path class="cls-1" d="M343.13,190.36l1.69.19S344.57,188.36,343.13,190.36Z"/><path class="cls-1" d="M346.71,191.11l1.37.56S348.52,189.5,346.71,191.11Z"/><path class="cls-3" d="M317.76,190c-6.28-1.6-11.14-4.43-16.38-8.24l-7.3-5.31A62.24,62.24,0,0,0,280,189a1.69,1.69,0,0,0-.54,1.41,1.65,1.65,0,0,0,.71.82c7.58,5.59,19.58,10.44,28,3.49a11.07,11.07,0,0,1-4.92,4.84,1.61,1.61,0,0,0,.24,3,70.89,70.89,0,0,0,15.24,2.55c1,.05,2-.83,2.86-1.54a5.45,5.45,0,0,0,1.46-2.45C324,196.81,322.32,191.15,317.76,190Z"/><path class="cls-1" d="M312.56,171.3c-1.22,1.22-.92,3.4.23,4.69a8.18,8.18,0,0,0,4.59,2.19,22.36,22.36,0,0,1,5,1.22,23.75,23.75,0,0,1,3.48,2.25,21.22,21.22,0,0,0,13.35,3.56,4.18,4.18,0,0,0,1.82-.45,1.64,1.64,0,0,0,.85-1.57c-.15-.89-1.19-1.3-2.06-1.54L331,179.22A52.06,52.06,0,0,1,315.45,172,4.67,4.67,0,0,0,312.56,171.3Z"/><path class="cls-1" d="M313.23,170a5.61,5.61,0,0,0-1.24,1.47,3.73,3.73,0,0,0,1.28,4.36,8.71,8.71,0,0,0,4.6,1.53,22.54,22.54,0,0,1,4.85.71c2.68.91,4.7,3.16,7.23,4.43s5.65,1.5,8.58,1.67c1.17.06,2.61,0,3.17-1a2.23,2.23,0,0,0-.6-2.52,9,9,0,0,0-2.38-1.41,18.85,18.85,0,0,1-6.41-5.33,12.56,12.56,0,0,1-2.47-4.66,3.28,3.28,0,0,0-.92-2,3.1,3.1,0,0,0-2.42-.09,14.44,14.44,0,0,1-4.25.27c-1.34-.11-2.69-.76-4-.79C316.28,166.56,314.55,168.79,313.23,170Z"/><path class="cls-1" d="M313.83,176.8s-.13,1.33,1.19.57Z"/><path class="cls-1" d="M316.39,177.66s-.14,1.59,1,.52Z"/><path class="cls-1" d="M327.7,182.32s.13,2.41,2.27,1.26Z"/><path class="cls-1" d="M332.83,184.41l2.14.19S333.94,186.83,332.83,184.41Z"/><path class="cls-1" d="M337.24,184.89l1.6-.19S338.48,187,337.24,184.89Z"/><path class="cls-2" d="M316.49,166.82a10.44,10.44,0,0,0,2.48,4.52c1.86,1.67,4.66,1.77,7.11,1.28a1.77,1.77,0,0,0,1.16-.57,1.86,1.86,0,0,0,.27-.8c1.47-8.54,2.95-17.26,1.7-25.85.13.93-6.17,4.13-7,4.58-2.2,1.18-5.2,1.83-7.1,3.46C311.35,156.64,315.24,163.22,316.49,166.82Z"/><path class="cls-2" d="M302.21,137.94a1.55,1.55,0,0,0-.38-1,1.57,1.57,0,0,0-1.17-.26l-10.82.53a83.53,83.53,0,0,0-9.88.87c-3.6.61-6.79,2.08-10.27,3-2.82.79-5.77.89-8.6,1.79a5.89,5.89,0,0,0-2.56,1.37,6.46,6.46,0,0,0-1.26,3,191.11,191.11,0,0,1-7.5,25,1.71,1.71,0,0,0-.14,1.19,1.68,1.68,0,0,0,.62.65,147.41,147.41,0,0,0,13.46,9.14c3.73,2.15,7.84,4.15,10.1,7.81.92,1.5,1.85,3.47,3.61,3.54a4.26,4.26,0,0,0,2.13-.71,44.92,44.92,0,0,0,16.75-16.6,1.53,1.53,0,0,0,.28-1,1.56,1.56,0,0,0-.67-.79l-8.38-6.07c-2.53-1.42-10-6.24-10.59-13.77.11,1.52,2.47,3.69,3.41,4.67a36.79,36.79,0,0,0,9.1,6.75c4.46,2.4,11.48,5.54,12.63-1.93A93.06,93.06,0,0,0,302.21,137.94Z"/><path class="cls-3" d="M329,137.56c-5.78-7-13.94,1.44-16.37,7.21a21.23,21.23,0,0,1,2.74-6.71,1.62,1.62,0,0,0-1.72-2.44,132.2,132.2,0,0,0-14.16,3.57,62.33,62.33,0,0,0-1.44,23.28c6.33-.49,11.8-4.4,16.91-8.16a8.71,8.71,0,0,0,8.85.17,13.55,13.55,0,0,0,5.85-7C331,144.25,331.23,140.24,329,137.56Z"/><path class="cls-4" d="M256.93,162.82a69.44,69.44,0,0,1,4.14-9.18,56.54,56.54,0,0,1,8-10.42c.89-1,1.78-2.59.74-3.4a2.41,2.41,0,0,0-.91-.36l-5.28-1.3a68.29,68.29,0,0,0-9.58,20,27.08,27.08,0,0,0-1,4.79c-.1,1-.58,5.89,1.22,5.91C255.06,168.9,256.6,163.63,256.93,162.82Z"/><path class="cls-3" d="M208,123.44c.17,1.76,1.19,3.33,1.58,5.05.33,1.5.17,3.07.4,4.59s1,3.13,2.48,3.61c1.22.4,2.56-.08,3.82.12,1.8.29,3.06,1.86,4.35,3.14a1,1,0,0,0,.56.33c.3,0,.55-.22.75-.44l4.75-5.28a2.22,2.22,0,0,0,.65-2.58c-1-4.59-2.34-13.16-7.43-15.15C215.46,115.08,207.48,117.78,208,123.44Z"/><path class="cls-5" d="M263.34,134.22c-3.49,0-10.79-5.62-11.54-6.65-2.05-2.82-5.74-3.78-8.85-5.35l0,0c-1.14-.58-7.91-5.81-8.81-7.1a46.67,46.67,0,0,0-3.24-3.65c-1.56-1.83-3.09-3.67-4.74-5.43-3.16-3.38-6.78-6.47-11.25-7.9-3.87-1.24-8-1.14-12.09-1l-13.93.4c0,2.14.6,3.27.65,5.4A48.2,48.2,0,0,0,200,108c5.83,2,12.56,3.14,16.24,8.07.79,1.06,1.4,2.25,2.27,3.24,1.17,1.34,2.77,2.26,4,3.57a8.46,8.46,0,0,1,2.13,6.48c-.33,3.23-2.48,5.95-4.54,8.46a10.23,10.23,0,0,1-2.84,2.69c-.87.47-1.86.69-2.7,1.2a17.79,17.79,0,0,1-2.54,1.73,5.59,5.59,0,0,1-3.7-.3,39.53,39.53,0,0,1-14.66-9c-2.18-2.11-4.14-4.49-6.7-6.1s-5.74-2.52-7.15-5.15l-5.75,2.44c.08,0,3.13,5.14,3.47,5.64a32.31,32.31,0,0,0,6.2,6.75c1.23,1,7.24,14.47,18.8,18.92,4.45,1.72,9.46,1.29,14.14,2.22a18.73,18.73,0,0,1,9.65,5.92c5.93,7.72,17.64,5.66,26.42,10.21,2.92-9.84,7.65-11.69,10.57-21.52,1.05-3.54,4.87-7.17,7.69-9.56,2.38-2,11.11-4.33,13.49-6.34C281.37,136,266.84,134.23,263.34,134.22Z"/><path class="cls-6" d="M190,101.93a3.25,3.25,0,0,1,.4,1.87c-.26.87-1.41,1.09-2.3.91a7.2,7.2,0,0,0-2.65-.44c-1.35.24-2.08,1.67-3.16,2.53-1.73,1.38-4.25,1.15-6.33.38s-4-2-6.17-2.41c-1.53-.31-3.33-.33-4.26-1.57-1-1.39-.28-3.37.67-4.82s2.13-3,1.85-4.71a4.63,4.63,0,0,1-.26-2c.33-1.11,1.83-1.24,3-1.16,2.92.21,6,.47,8.43,2.08,1,.64,1.82,1.48,2.83,2.07a10.6,10.6,0,0,0,4.16,1.19c.94.12,3.51-.21,4.22.43C191.68,97.37,189.37,100.14,190,101.93Z"/><path class="cls-6" d="M179.6,122.17c.2.37.4.85.14,1.18a1.16,1.16,0,0,1-.73.34,4.73,4.73,0,0,0-3.18,2.68c-.27.63-.52,1.44-1.2,1.58-.84.17-1.37-.84-1.78-1.6-1.1-2.09-3.2-3.44-5.23-4.65q-4-2.37-8-4.58c-1.1-.6-2.3-1.31-2.66-2.5s.88-2.76,2-2.17a3.35,3.35,0,0,1,1-5.21c1.52-.63,3.24,0,4.83.45a24,24,0,0,0,8.17.88c1.06-.07,3.57-.51,4.4.44.69.8,0,2.82,0,3.91A19.73,19.73,0,0,0,179.6,122.17Z"/><path class="cls-2" d="M201,99.66c4.06-.11,8.22-.22,12.09,1,4.47,1.43,8.09,4.53,11.25,7.9,1.65,1.76,3.19,3.61,4.75,5.43,1.05,1.24,2.31,2.31,3.24,3.65s7.66,6.52,8.8,7.11h0c3.11,1.58,6.8,2.53,8.85,5.35.75,1,8.05,6.64,11.55,6.65a115.46,115.46,0,0,1,19.33,2.71,15.71,15.71,0,0,0,3.61-1.92c-3.11-1.6-17.64-3.34-21.14-3.35s-10.79-5.62-11.54-6.65c-2.05-2.82-5.74-3.78-8.85-5.35l0,0c-1.14-.58-7.91-5.81-8.81-7.1a46.67,46.67,0,0,0-3.24-3.65c-1.56-1.83-3.09-3.67-4.74-5.43-3.16-3.38-6.78-6.47-11.25-7.9-3.87-1.24-8-1.14-12.09-1l-13.93.4a15.6,15.6,0,0,0,.28,2.5Z"/><path class="cls-2" d="M175,126.74l3-1.28c1.41,2.62,4.62,3.56,7.15,5.15s4.53,4,6.7,6.09a39.53,39.53,0,0,0,14.66,9,5.53,5.53,0,0,0,3.7.3,17,17,0,0,0,2.54-1.73c.84-.51,1.83-.72,2.7-1.2a10.34,10.34,0,0,0,2.84-2.68,34.69,34.69,0,0,0,2.86-3.86l-1,1.29a10.23,10.23,0,0,1-2.84,2.69c-.87.47-1.86.69-2.7,1.2a17.79,17.79,0,0,1-2.54,1.73,5.59,5.59,0,0,1-3.7-.3,39.53,39.53,0,0,1-14.66-9c-2.18-2.11-4.14-4.49-6.7-6.1s-5.74-2.52-7.15-5.15l-5.75,2.44A14.65,14.65,0,0,1,175,126.74Z"/><path class="cls-2" d="M261.49,156c-2.61,8.81-6.49,10.33-9.56,18.55l.8.41c2.92-9.84,7.65-11.69,10.57-21.52a10.75,10.75,0,0,1,1-2.16A14,14,0,0,0,261.49,156Z"/><path class="cls-2" d="M279.91,86.57l.08.27A.42.42,0,0,0,279.91,86.57Z"/><path class="cls-2" d="M279.91,86.57l.08.27A.42.42,0,0,0,279.91,86.57Z"/><path class="cls-7" d="M.22,86V39.11c0-24,9.88-35.57,34-35.57,22.44,0,33,10,33,33v7.48a1.83,1.83,0,0,1-1.41,1.7L44.54,48.43a1.69,1.69,0,0,1-2-1.56V33c0-5.36-2.82-9-8.47-9s-8.47,3.67-8.47,9V91.76c0,5.36,2.82,9,8.47,9s8.47-3.67,8.47-9V78.35a1.69,1.69,0,0,1,2-1.55l21.31,2.68a1.68,1.68,0,0,1,1.41,1.69v3.67c0,6.35-1,14.68-2.82,19.9-4.8,12.42-16.24,16.52-30.07,16.52C10.24,121.26.22,109.4.22,86Z"/><circle class="cls-8" cx="131.88" cy="61.05" r="61.05"/><path class="cls-2" d="M166.66,84.35a38,38,0,0,1-9.4-5.95,40.33,40.33,0,0,0-9.36-6c-3.54-1.45-7.83-1.93-11.24-.46a2.71,2.71,0,0,1-1.18.33,2.47,2.47,0,0,1-1-.33l-3-1.49a4.55,4.55,0,0,0,.19-3,2.56,2.56,0,0,0-2.71-1.57.78.78,0,0,0-.4.18.14.14,0,0,1,0-.06c-.33-1,1.28-2,.87-3s-1.93-.93-2.93-.51-1.91,1.13-3,1.07A2.77,2.77,0,0,1,121.12,62a4.79,4.79,0,0,1-.19-2.6,4.33,4.33,0,0,1,1.73-3.3,5.48,5.48,0,0,1,3.06-.61,10.64,10.64,0,0,1,8.64,4.82A2.37,2.37,0,0,0,135.84,58a6.19,6.19,0,0,1,.41-2.68c1.05-1.83,4.18-1.76,6.22-2.85,1.51-.81,2-2.07,3.17-3.13a14.17,14.17,0,0,1,5.08-2.7c2.61-.89,5.4-1.54,7.62-3,1.19-.75,2.23-1.85,2.17-3.12a4.56,4.56,0,0,0-.71-1.89,66.28,66.28,0,0,0-4.15-6.52c-1.3-1.81-3.37-3.82-5.77-3.36a4.35,4.35,0,0,0-3.08,3c-.53,1.39-.72,2.92-1.73,4.11a1.34,1.34,0,0,1-.39.32c-.68.36-1.28-.07-1.75-.46l-5-4.13a7,7,0,0,1-1.57-1.59c-1-1.69-.05-3.8,1.63-5a18.65,18.65,0,0,1,6-2.28c2.11-.57,4.29-1.28,5.66-2.72a1.94,1.94,0,0,0,.67-1.36c-.09-1.54-2.63-1.82-4-2a13,13,0,0,1-5.45-2.09,2.45,2.45,0,0,1-1.21-1.41c-.1-.63.37-1.2.68-1.78a3.88,3.88,0,0,0,.48-2.18,1.15,1.15,0,0,0-.34-.84,2.2,2.2,0,0,0-.85-.34,11.16,11.16,0,0,1-4.75-2.48c-1-.9-2-2.07-3.44-2a3.54,3.54,0,0,0-1.66.5A3.81,3.81,0,0,0,128,5.72a1.7,1.7,0,0,0,.66,2.13c.36.22.81.31,1.16.55a1.4,1.4,0,0,1-.4,2.4C127,11.93,124,8.49,121.49,8.2c-1.67-.2-3.4.19-5-.19-2.49-.59-3.83-2.66-5.4-4.5A61.37,61.37,0,0,0,88.51,17.75c-.11.79-.62,1.52-1.93,2.16a.82.82,0,0,0-.49.67c0,.5.55.68,1,.74a5.84,5.84,0,0,0,3.37-.56l.33-.06a8,8,0,0,0,3.06-1.28c1.66-1.16,3.63-2.08,5.62-1.47,1.8.54,2.81,2.13,3.63,3.59,2.56,4.54,5,9.49,4,14.35-.65,3.23-2.8,6.16-3,9.44-.24,3.82,2.17,7.44,4.5,10.8h0c.35.51,1.25.23,1.1-.34-.47-1.72-1.34-4-1.27-5,1.32,2.5,4.48,7.36,5.8,9.86a12.79,12.79,0,0,0,1.59,2.51c2,2.3,5.41,3.3,8.38,4.66a57.07,57.07,0,0,1,11,7.18,1,1,0,0,1,.23.24c.4.58-.28,1-.81,1.36-3.28,2.09-3.46,6.64-1.2,9.43,1.21,1.5,2.83,2.76,4,4.27,3.43,4.32,2.93,9.88,2.25,14.94-.4,2.91-1.78,5.45-1.62,8.44a16.23,16.23,0,0,0,2.47,7.74c1.62-.25,3.23-.55,4.82-.92a9.23,9.23,0,0,1,1.79-9.49c2.66-3,7.22-4.64,9-8,1.15-2.19,2-2.74,4.13-4.27,1-.74,2.3-1.26,3.39-2,3.05-1.93,4.67-5,6.18-8a3,3,0,0,0,.47-1.58C170.27,85.75,168.27,85,166.66,84.35Z"/><path class="cls-2" d="M155.19,24.94a3.77,3.77,0,0,0,2.5,3,4.83,4.83,0,0,0,4.3-.44A4.82,4.82,0,0,0,163.86,24c.47-4.2-2.46-8.65-6.41-11.29-3.11-2.09-12.19-.5-7.59,3.22a15.88,15.88,0,0,0,3.28,1.7,5,5,0,0,1,2.67,2.25C152.93,12.83,154.51,14.86,155.19,24.94Z"/><path class="cls-2" d="M183.7,92.45c-.1.29-.2.57-.29.85a61.2,61.2,0,0,0,7.93-44.8,31.09,31.09,0,0,0-7.28,10.22c-1.4,3.06-2.41,6.71-1.75,9.08,1.05,3.81,5.62,2.35,6.85,6,.78,2.31-.08,6-1.36,9.21S184.86,89.22,183.7,92.45Z"/><path class="cls-2" d="M150.33,5.45a2.67,2.67,0,0,0,.75,2.08,4.27,4.27,0,0,0,2.25,1.58c2,.51,3.84-.85,5.31-2l.59-.48c-1.57-.8-3.19-1.53-4.84-2.2a7.47,7.47,0,0,1-1.44.24C151.83,4.69,150.64,3.77,150.33,5.45Z"/><path class="cls-2" d="M146.41,7.66a2.72,2.72,0,0,0-.88,0,5.12,5.12,0,0,1-.68,0,1.57,1.57,0,0,0-1.52,1.06,3.35,3.35,0,0,0,.31,2v0a2.67,2.67,0,0,0,4,.94l.19-.15,0,0C150.58,9.6,148.55,8.05,146.41,7.66Z"/><path class="cls-2" d="M172.24,15.48a9.68,9.68,0,0,1-1.49,3.11,17.59,17.59,0,0,0-2.24,6.09c-.37,2.19-.22,4.65,1.52,6.37a2.44,2.44,0,0,0,1.59.8,2.94,2.94,0,0,0,1.45-.45l9-4.66A61.75,61.75,0,0,0,172.24,15.48Z"/><path class="cls-2" d="M142.9,64.65a16.84,16.84,0,0,1-4.31-1.73,17.67,17.67,0,0,0-4.49-1,1.55,1.55,0,0,0,.51,1.7,6.52,6.52,0,0,0,1.82,1c2.51,1.1,5.17,2.24,8,2.2a.87.87,0,0,0,.18-1.42A3.71,3.71,0,0,0,142.9,64.65Z"/><path class="cls-2" d="M137.23.24a2.26,2.26,0,0,0,.27,1.49,9.34,9.34,0,0,0,1.59,2.05,2.56,2.56,0,0,0,1.2.87A2.41,2.41,0,0,0,142,4.29a5.59,5.59,0,0,0,2.42-2.59c0-.11.09-.22.12-.33a60.34,60.34,0,0,0-6.11-1Z"/><path class="cls-2" d="M60.47,156.85c-.48.41-1.3.51-5.54,1.25a3.68,3.68,0,0,0-.84.35,8.14,8.14,0,0,0-3.07,1c-.2.11-.45.67-.52,1.7.28.34.43.32.79.32,2,0,4.93-1,5.29-1,1.32.29,1.93,2.33,1.93,3.38a6.43,6.43,0,0,1-.16.83c-.16.45-1,.82-1.92.9-4.57.42-6.7.77-7.23,1.15a1.62,1.62,0,0,0-.26.86c0,1.07,2.29,1.35,2.67,1.35,1.42,0,2.13-.75,2.65-.75s1.89,1.5,1.89,3.19c0,1.11-.65,2.92-3.47,2.92a13.44,13.44,0,0,1-6.08-2.12s.06-.45-.87-1.12a10.22,10.22,0,0,1-.9-3.92c0-3.25,1.61-5.41,1.83-6.66,0,0-.77-1.08-1.07-1.48a1.62,1.62,0,0,1-.34-1.22c0-2.53,1.66-3,1.74-3h.58A6.61,6.61,0,0,0,49,154l.91-.06c.54-.07,6.63-1.64,7.84-1.64,1,0,1.35.16,1.73.75a10.09,10.09,0,0,1,1.29,3A1.8,1.8,0,0,1,60.47,156.85Z"/><path class="cls-2" d="M63.49,166.72a2.3,2.3,0,0,0-.33,1c0,.38,1.37,1,2.66,1.07,3.76.19,3.28-1.55,4.38-1,.72.36,1.36,2.17,1.36,3.23,0,2.44-2.37,3.13-4.48,3.13a13.3,13.3,0,0,1-5.46-1.35S59.4,170,59.4,168c0-4.56,2.43-9.58,2.55-9.82,0,0,.2-1.31.31-2.16s.78-1.16,1.33-1.76a81.71,81.71,0,0,1,10.29-1.84c.86-.09,1.94,1.11,2.53,2.93.1.32-.07,1.6-.5,1.73-.26.08-1,.16-6.51.74a6.28,6.28,0,0,0-2.34.54,6.38,6.38,0,0,0-1.42,2.21c-.12.48.12.74.75.68a16.57,16.57,0,0,0,5.13-1.59c1,0,2,1.39,2.33,2.91a2,2,0,0,1-.35,1.82,11.3,11.3,0,0,1-3.67,1.18,4.9,4.9,0,0,1-1.34.08c-.12,0-.43.2-.61.23C65.77,166.18,63.86,166.36,63.49,166.72Z"/><path class="cls-2" d="M126.65,154.81c0,1.14-.33,1.88-.73,2-1.79.68-7.8,1.54-10.58,2.46a3.79,3.79,0,0,0-1.4,2.27c0,.3.35.4.87.34,4-.53,4.7-.88,6.37-1.63a1.4,1.4,0,0,1,.91.3,4.44,4.44,0,0,1,1,3,2,2,0,0,1-2,2.08c-2.08.32-6.85,1-8.24,1.19a2.22,2.22,0,0,0-1.17.35c-.63.91-.38,2.81,3.89,1.87,1.8-.39,2.16-1.05,3.17-1.05a1.31,1.31,0,0,1,.27,0,3.29,3.29,0,0,1,1.06,2.83,3.12,3.12,0,0,1-1.88,3,3.91,3.91,0,0,1-.62.15,8.66,8.66,0,0,1-.9.41,6.48,6.48,0,0,1-1.6.24c-2.93,0-7.6-1.35-7.6-6.77,0-4.92,3.34-8.35,4.22-11.61a4.06,4.06,0,0,0,.45-.56c.06-.56.57-1.87,1.2-1.94A72.69,72.69,0,0,0,124,151.26a1,1,0,0,1,.95.11A4.68,4.68,0,0,1,126.65,154.81Z"/><path class="cls-2" d="M44.21,169c-.87-1-3.68-2.52-4.64-3.51.42-.47,2.67-3.64,2.67-6.15,0-3.54-2.57-7.79-6-7.79,0,0-1,0-2.23.11-.22.35-1,.27-1,.27-1.21.54-2.34,1.46-2.34,4.39,0,.53.74,1.07,1.18,1.48a15.42,15.42,0,0,1-.84,3.66c-.16.4-1.28.56-1.28.56l-.59.76c-.38,2.27,0,2.54.79,3.57.11,1.2-.36,3.28-.36,4.46,0,.85.33.76.15,1.64a1,1,0,0,1,.21.34,2.6,2.6,0,0,0,2.31,1.7,1.34,1.34,0,0,0,1.44-1.12c0-1-.26-4.1-.23-4.38a3.13,3.13,0,0,1,.48-1.51c.67,0,3.62,2.68,6.15,5.26a2.82,2.82,0,0,0,1.81.78c1.53,0,2.17-1.73,2.6-2.13A2.6,2.6,0,0,0,44.21,169Zm-8.81-6.83c-.14.08-.58-.07-.64-.12s.78-4.56.85-5.54a1.93,1.93,0,0,1,2.55,1.75C38.16,159.5,37.58,161,35.4,162.16Z"/><path class="cls-2" d="M107.52,152.78l-1.1-.32-.57-.29a31.67,31.67,0,0,0-6.23-.22,8.08,8.08,0,0,1-1.32-.25,8.34,8.34,0,0,1-1.68.75,3.65,3.65,0,0,1-.77-.23,12.92,12.92,0,0,0-4.06,1.19,2.74,2.74,0,0,0-.93,1.08v0c0,.09-.17.22-.2,0h0a3.26,3.26,0,0,0-.1-.6,2.81,2.81,0,0,0-2.35-1.84c-.31,0-1,.35-1,.73s-.13,2.63-.36,4.72a33.09,33.09,0,0,1-.42,5.45c-.09,0-.36.12-.45,0-1-1.49-3.57-4.06-3.79-5.76s0-4.05-.76-4.69a6.39,6.39,0,0,0-2.24-.68,1.72,1.72,0,0,0-1.41.66l-.06.48-.45.67a11.72,11.72,0,0,0-.26,2.83l.38,1.94a1.43,1.43,0,0,1-.35.83l.1,1.49c0,1.69-1.54,7.46-1.54,9.21,0,3.91,3.42,3.59,3.62,3.42a3.53,3.53,0,0,0,.75-1.28c.24-2.31.47-6.26,1.1-7.42.12-.23.45-.35.62-.19a10.27,10.27,0,0,1,1.23,1.79c.6.86,2.38,3,2.71,4.94,0,.17,0,.56,0,.86a3.39,3.39,0,0,0,1.28,2.16,3.25,3.25,0,0,0,1.87.22c.65-.12,1.83-.24,1.83-3.3a21.74,21.74,0,0,0-.3-3.15c0-.39.46-4,.46-9a7.58,7.58,0,0,1-.32-.73,7.62,7.62,0,0,0,.21-1h0c0-.12.09-.22.13-.11h0l.13.23a1.82,1.82,0,0,0,1.51.74c1.09,0,2.51-1.26,3.49-1,.14,0,.28-.2,1-.27a22.48,22.48,0,0,1-.1,2.9c-.06.66-.35.8-1.57.8a1,1,0,0,0-.85.64,12.34,12.34,0,0,0-.47,2.53,3.16,3.16,0,0,0,2.36,2.53c.08.4-.3,3.49-.3,5a4.47,4.47,0,0,0,.43,2.32,4.14,4.14,0,0,0,2,.89,2,2,0,0,0,1.48-.61,3.21,3.21,0,0,0,.27-1.33c.08-3.55.48-7.29.92-7.42a19.52,19.52,0,0,0,6.31-3,5.75,5.75,0,0,0,2.46-4.08A7.32,7.32,0,0,0,107.52,152.78Zm-6.26,7.11c-.27,0-.44-.09-.51-.31a14.61,14.61,0,0,1-.37-3.34c.93-.2,5,0,5,1.11S102.65,159.89,101.26,159.89Z"/><path class="cls-2" d="M28.54,165.44a8.53,8.53,0,0,0-1.07-3.26,2.49,2.49,0,0,0-2.06-.79c-.54,0-9.66,1.41-10.8,2.11-.55.34-.75,1.12-.75,2.24A2.19,2.19,0,0,0,15.2,168c.66,0,5.29-.9,7-1.21.34-.06.48.08.47.22a1.87,1.87,0,0,1-.29,1.08,5.78,5.78,0,0,1-2.46,1.44c-1.31-.26-2.42.86-3.73.21-.57,0-1.39.4-1.78-.23-1.32-.3-2.74-.39-3.8-1.27a1.69,1.69,0,0,1-.5-1.36c0-1.43,2.14-5.11,5.77-8.53.76-.71,3.46-2.69,4.66-2.69.79,0,1.07,1.77,1.7,2.45a1.49,1.49,0,0,0,1.15,0c.7-.3,1.25-.68,1.25-1.5a6.66,6.66,0,0,0-1.33-4.07,5.93,5.93,0,0,0-2.88-1.23c-1.52,0-2.24.91-2.8.93a19.09,19.09,0,0,0-3.8,3.08,1.12,1.12,0,0,1-.41.22,3.08,3.08,0,0,1-.36.83l-.88.57c-1.05,1-5.55,6.64-5.55,8.75a10.26,10.26,0,0,0,1.8,5.18c1.65,1.55,4.71,2.63,8.16,2.63a12.54,12.54,0,0,0,5.34-1.33h0c.16-.09.27-.08.26.1s-.06.48-.07.71-.13,1.42-.13,2.22a3.28,3.28,0,0,0,.77,2.49,5.31,5.31,0,0,0,2.13.46,1.9,1.9,0,0,0,1.59-1.83c0-.72-.08-1.7-.07-1.94C26.7,168.19,28.54,166.47,28.54,165.44Z"/><path class="cls-2" d="M177.54,155a4.27,4.27,0,0,0-2.49-3.12c-.89.2-8.19,1.6-13,2.23-.66.09-1.48.12-1.48.12l-.55.28a3.57,3.57,0,0,0-1.41.41,4.26,4.26,0,0,0-1.68,2.72l.1,1.25c-1.49,2.95-2.49,5.32-2.49,8.53,0,.06,0,.13,0,.2,0,.24,0,.35-.09.29a2.81,2.81,0,0,0-.27-.36c-.57-.66-.76-.74-1-.74-.78,0-1.38,1.47-4,1.47-2.38,0-6.86-2.49-6.86-3.8,0-2.87,3.82-6.45,6.66-6.45.5,0,.63.14.63.48,0,.57-.43,1.46-.43,2,0,1.37,2.07,2.35,3.15,2.35.31,0,2.53-.82,2.53-4,0-1.9-1.38-5-3.65-5a20.17,20.17,0,0,0-10,3.52,1.94,1.94,0,0,1-.4.58,10.79,10.79,0,0,1-.94.71,12.61,12.61,0,0,0-1.42,2.47,4.2,4.2,0,0,0-.18.45h0c-.13.33-.33.44-.37.25s0-.38-.06-.65a22.72,22.72,0,0,0-.38-2.86s-.32-.87-.41-1.26c0-.11,0-.59,0-.59a8.79,8.79,0,0,0-2.46-4.32c-1-.38-1.3-.48-1.75-.19-1.77,1.13-3.86,4.58-7.06,10.49a5.77,5.77,0,0,1-1.23,1,4.59,4.59,0,0,1-.06,1.65c-.64,2-2.48,4.58-2.4,5.1l.1.63-.07.73a3.66,3.66,0,0,0,2.68,2.18,1.09,1.09,0,0,0,.28,0c1.23-1.09,1.58-3.2,2.68-5,.12-.19.16-.23.45-.34a16.72,16.72,0,0,1,2.75-.58,3.79,3.79,0,0,1,1.17.06l.55-.18c.51,0,.78.12.78.54a28.43,28.43,0,0,0,.18,4.24c.21,1,1.11,1.62,2.87,1.76a1.83,1.83,0,0,0,1.14-1.08,11.12,11.12,0,0,0,.13-3.42c0-1.67.06-2.65.1-3.19,0-.19.17-.24.23-.07h0a5.76,5.76,0,0,0,.87,1.6A16,16,0,0,0,150,174a4.22,4.22,0,0,0,4.4-3c.17-.45.3-.84.36-1.05,0-.06.12,0,.18.07h0a6.47,6.47,0,0,0,.55.81c1.79,2.25,4.33,3,7.54,2.47,3.56-.54,4-.9,4.35-1.3a4.72,4.72,0,0,0,.76-2.39,2,2,0,0,0-.37-1.74c-.55-.55-2.26,0-4.52.39-3,.51-4.25-.75-4.21-1.14,0-.23.14-.7.44-.78a3.4,3.4,0,0,1,1.19.11,23.86,23.86,0,0,1,3-.32c.46,0,1,.07,1.19.08,0,0,2-.15,3.13-.38a1.93,1.93,0,0,0,1.42-1.16,3.84,3.84,0,0,0-.17-2.28c-.82-1.7-1.8-1.89-2-1.85a20.24,20.24,0,0,1-5.92.69.64.64,0,0,1-.52-.68,2.88,2.88,0,0,1,1.83-2.08c2.24-.43,8.89-1.09,11.33-1.21,1.53-.08,3.14.39,3.45-.13A4,4,0,0,0,177.54,155Zm-44,6.92c-.18.35-1.25.62-3,.64-.08,0-.17-.16-.13-.26a35.67,35.67,0,0,1,2.37-4.91.82.82,0,0,1,.64.25C133.78,158.06,133.8,161.42,133.57,161.87Z"/></g></g></svg>